<svg width="12" height="8" viewBox="0 0 12 8" fill="none" xmlns="http://www.w3.org/2000/svg">
<path d="M11.14 1.25173C11.0092 0.759021 10.6236 0.370979 10.1341 0.239292C9.24683 0 5.6889 0 5.6889 0C5.6889 0 2.13098 0 1.24367 0.239292C0.754146 0.371 0.368604 0.759021 0.23775 1.25173C0 2.14479 0 4.00808 0 4.00808C0 4.00808 0 5.87138 0.23775 6.76444C0.368604 7.25715 0.754146 7.62902 1.24367 7.76071C2.13098 8 5.6889 8 5.6889 8C5.6889 8 9.24681 8 10.1341 7.76071C10.6236 7.62902 11.0092 7.25715 11.14 6.76444C11.3778 5.87138 11.3778 4.00808 11.3778 4.00808C11.3778 4.00808 11.3778 2.14479 11.14 1.25173ZM4.52525 5.69981V2.31635L7.49898 4.00813L4.52525 5.69981Z" fill="white"/>
</svg>
